<?xml version="1.0" encoding="UTF-8" standalone="no"?>
<!-- Created with Inkscape (http://www.inkscape.org/) -->

<svg
   xmlns:dc="http://purl.org/dc/elements/1.1/"
   xmlns:cc="http://creativecommons.org/ns#"
   xmlns:rdf="http://www.w3.org/1999/02/22-rdf-syntax-ns#"
   xmlns:svg="http://www.w3.org/2000/svg"
   xmlns="http://www.w3.org/2000/svg"
   xmlns:sodipodi="http://sodipodi.sourceforge.net/DTD/sodipodi-0.dtd"
   xmlns:inkscape="http://www.inkscape.org/namespaces/inkscape"
   viewBox="0 0 16 16"
   id="svg2"
   version="1.1"
   inkscape:version="0.91 r13725"
   sodipodi:docname="snap-bounding-box-center.svg">
  <metadata
     id="metadata24">
    <rdf:RDF>
      <cc:Work
         rdf:about="">
        <dc:format>image/svg+xml</dc:format>
        <dc:type
           rdf:resource="http://purl.org/dc/dcmitype/StillImage" />
        <dc:title></dc:title>
      </cc:Work>
    </rdf:RDF>
  </metadata>
  <defs
     id="defs22" />
  <sodipodi:namedview
     pagecolor="#ffffff"
     bordercolor="#666666"
     borderopacity="1"
     objecttolerance="10"
     gridtolerance="10"
     guidetolerance="10"
     inkscape:pageopacity="0"
     inkscape:pageshadow="2"
     inkscape:window-width="1920"
     inkscape:window-height="1056"
     id="namedview20"
     showgrid="true"
     inkscape:zoom="29.5"
     inkscape:cx="-3.1575322"
     inkscape:cy="4.8210566"
     inkscape:window-x="0"
     inkscape:window-y="24"
     inkscape:window-maximized="1"
     inkscape:current-layer="svg2"
     inkscape:object-paths="true"
     inkscape:snap-intersection-paths="true"
     inkscape:object-nodes="true">
    <inkscape:grid
       type="xygrid"
       id="grid4186" />
  </sodipodi:namedview>
  <rect
     width="2"
     style="opacity:1;fill:none;fill-opacity:1;stroke:#313131;stroke-width:1;stroke-linecap:butt;stroke-linejoin:miter;stroke-miterlimit:4;stroke-dasharray:none;stroke-dashoffset:0;stroke-opacity:1"
     x="6.5"
     y="-8.5"
     height="2"
     id="rect16"
     transform="scale(1,-1)" />
  <path
     style="color:#000000;font-style:normal;font-variant:normal;font-weight:normal;font-stretch:normal;font-size:medium;line-height:normal;font-family:sans-serif;text-indent:0;text-align:start;text-decoration:none;text-decoration-line:none;text-decoration-style:solid;text-decoration-color:#000000;letter-spacing:normal;word-spacing:normal;text-transform:none;direction:ltr;block-progression:tb;writing-mode:lr-tb;baseline-shift:baseline;text-anchor:start;white-space:normal;clip-rule:nonzero;display:inline;overflow:visible;visibility:visible;opacity:1;isolation:auto;mix-blend-mode:normal;color-interpolation:sRGB;color-interpolation-filters:linearRGB;solid-color:#000000;solid-opacity:1;fill:#dc322f;fill-opacity:1;fill-rule:evenodd;stroke:none;stroke-width:1;stroke-linecap:butt;stroke-linejoin:miter;stroke-miterlimit:4;stroke-dasharray:2, 1;stroke-dashoffset:0;stroke-opacity:1;color-rendering:auto;image-rendering:auto;shape-rendering:auto;text-rendering:auto;enable-background:accumulate"
     d="m 13,2 c 0,0.666667 0,1.333333 0,2 0.333333,0 0.666667,0 1,0 0,-0.666667 0,-1.333333 0,-2 -0.333333,0 -0.666667,0 -1,0 z m 0,3 c 0,0.666667 0,1.3333333 0,2 0.333333,0 0.666667,0 1,0 0,-0.6666667 0,-1.333333 0,-2 -0.333333,0 -0.666667,0 -1,0 z m 0,3 c 0,0.6666667 0,1.3333333 0,2 0.333333,0 0.666667,0 1,0 0,-0.6666667 0,-1.3333333 0,-2 -0.333333,0 -0.666667,0 -1,0 z m 0,3 c 0,0.666667 0,1.333333 0,2 -0.666667,0 -1.333333,0 -2,0 0,0.333333 0,0.666667 0,1 1,0 2,0 3,0 0,-1 0,-2 0,-3 -0.333333,0 -0.666667,0 -1,0 z M 2,13 c 0,0.333333 0,0.666667 0,1 0.666667,0 1.333333,0 2,0 0,-0.333333 0,-0.666667 0,-1 -0.666667,0 -1.333333,0 -2,0 z m 3,0 c 0,0.333333 0,0.666667 0,1 0.666667,0 1.3333333,0 2,0 0,-0.333333 0,-0.666667 0,-1 -0.6666667,0 -1.333333,0 -2,0 z m 3,0 c 0,0.333333 0,0.666667 0,1 0.6666667,0 1.3333333,0 2,0 0,-0.333333 0,-0.666667 0,-1 -0.6666667,0 -1.3333333,0 -2,0 z"
     id="path4135"
     inkscape:connector-curvature="0" />
</svg>
