<?xml version="1.0" encoding="UTF-8" standalone="no"?>
<svg
   xmlns:dc="http://purl.org/dc/elements/1.1/"
   xmlns:cc="http://creativecommons.org/ns#"
   xmlns:rdf="http://www.w3.org/1999/02/22-rdf-syntax-ns#"
   xmlns:svg="http://www.w3.org/2000/svg"
   xmlns="http://www.w3.org/2000/svg"
   xmlns:sodipodi="http://sodipodi.sourceforge.net/DTD/sodipodi-0.dtd"
   xmlns:inkscape="http://www.inkscape.org/namespaces/inkscape"
   viewBox="0 0 16 16"
   id="svg2"
   version="1.1"
   inkscape:version="0.91 r13725"
   sodipodi:docname="snap-nodes-smooth.svg">
  <metadata
     id="metadata12">
    <rdf:RDF>
      <cc:Work
         rdf:about="">
        <dc:format>image/svg+xml</dc:format>
        <dc:type
           rdf:resource="http://purl.org/dc/dcmitype/StillImage" />
        <dc:title></dc:title>
      </cc:Work>
    </rdf:RDF>
  </metadata>
  <sodipodi:namedview
     pagecolor="#ffffff"
     bordercolor="#666666"
     borderopacity="1"
     objecttolerance="10"
     gridtolerance="10"
     guidetolerance="10"
     inkscape:pageopacity="0"
     inkscape:pageshadow="2"
     inkscape:window-width="1920"
     inkscape:window-height="1056"
     id="namedview10"
     showgrid="true"
     inkscape:zoom="29.5"
     inkscape:cx="-0.096113742"
     inkscape:cy="11.195783"
     inkscape:window-x="0"
     inkscape:window-y="24"
     inkscape:window-maximized="1"
     inkscape:current-layer="svg2"
     inkscape:object-paths="true"
     inkscape:snap-intersection-paths="true"
     inkscape:snap-smooth-nodes="true"
     inkscape:object-nodes="true"
     inkscape:snap-midpoints="true">
    <inkscape:grid
       type="xygrid"
       id="grid4172"
       spacingy="0.5" />
  </sodipodi:namedview>
  <defs
     id="defs3051">
    <style
       type="text/css"
       id="current-color-scheme">
      .ColorScheme-Text {
        color:#f2f2f2;
      }
      .ColorScheme-Highlight {
        color:#3daee9;
      }
      </style>
    <style
       id="current-color-scheme-5"
       type="text/css">
      .ColorScheme-Text {
        color:#f2f2f2;
      }
      .ColorScheme-Highlight {
        color:#3daee9;
      }
      </style>
  </defs>
  <path
     style="color:#000000;font-style:normal;font-variant:normal;font-weight:normal;font-stretch:normal;font-size:medium;line-height:normal;font-family:sans-serif;text-indent:0;text-align:start;text-decoration:none;text-decoration-line:none;text-decoration-style:solid;text-decoration-color:#000000;letter-spacing:normal;word-spacing:normal;text-transform:none;direction:ltr;block-progression:tb;writing-mode:lr-tb;baseline-shift:baseline;text-anchor:start;white-space:normal;clip-rule:nonzero;display:inline;overflow:visible;visibility:visible;opacity:1;isolation:auto;mix-blend-mode:normal;color-interpolation:sRGB;color-interpolation-filters:linearRGB;solid-color:#000000;solid-opacity:1;fill:#dc322f;fill-opacity:1;fill-rule:evenodd;stroke:none;stroke-width:1px;stroke-linecap:butt;stroke-linejoin:miter;stroke-miterlimit:4;stroke-dasharray:none;stroke-dashoffset:0;stroke-opacity:1;color-rendering:auto;image-rendering:auto;shape-rendering:auto;text-rendering:auto;enable-background:accumulate"
     d="M 2 2 L 2 3 C 2.3515341 3 2.995602 3.1837062 3.6699219 3.5957031 C 4.3442417 4.0077001 5.0621524 4.637058 5.65625 5.4765625 C 5.6615327 5.4840274 5.6666107 5.4925022 5.671875 5.5 L 6.8515625 5.5 C 6.7318729 5.2906659 6.6067056 5.0878594 6.4726562 4.8984375 C 5.7955637 3.9416549 4.9810741 3.2266131 4.1914062 2.7441406 C 3.4017384 2.2616682 2.6484659 2 2 2 z M 7.5 6.9824219 L 7.5 7.5 L 6.6503906 7.5 C 7.1243055 8.992402 7.2112556 10.860948 6.5214844 13.164062 L 6.2714844 14 L 7.1191406 13.792969 C 8.4905233 13.457983 10.113789 12.361356 11.472656 11.216797 C 12.15209 10.644517 12.756206 10.060538 13.203125 9.5371094 C 13.426584 9.2753949 13.611187 9.0294442 13.75 8.7949219 C 13.888813 8.5603996 14 8.3464689 14 8.0507812 L 13 8.0507812 C 13 8.0050943 12.98328 8.1253243 12.888672 8.2851562 C 12.794072 8.4449882 12.639549 8.6546554 12.441406 8.8867188 C 12.045122 9.3508452 11.475207 9.9077861 10.830078 10.451172 C 9.8053397 11.314298 8.6758024 11.903451 7.6933594 12.333984 C 8.1231841 10.253826 7.9817089 8.4586232 7.5 6.9824219 z "
     id="path4139" />
  <rect
     width="2"
     style="opacity:1;fill:none;fill-opacity:1;stroke:#313131;stroke-width:1;stroke-linecap:butt;stroke-linejoin:miter;stroke-miterlimit:4;stroke-dasharray:none;stroke-dashoffset:0;stroke-opacity:1"
     x="5.5"
     y="-7.5"
     height="2"
     id="rect16"
     transform="scale(1,-1)" />
</svg>
