<?xml version="1.0" encoding="UTF-8" standalone="no"?>
<!-- Created with Inkscape (http://www.inkscape.org/) -->

<svg
   xmlns:dc="http://purl.org/dc/elements/1.1/"
   xmlns:cc="http://creativecommons.org/ns#"
   xmlns:rdf="http://www.w3.org/1999/02/22-rdf-syntax-ns#"
   xmlns:svg="http://www.w3.org/2000/svg"
   xmlns="http://www.w3.org/2000/svg"
   xmlns:sodipodi="http://sodipodi.sourceforge.net/DTD/sodipodi-0.dtd"
   xmlns:inkscape="http://www.inkscape.org/namespaces/inkscape"
   viewBox="0 0 16 16"
   id="svg2"
   version="1.1"
   inkscape:version="0.91 r13725"
   sodipodi:docname="snap-nodes-rotation-center.svg">
  <metadata
     id="metadata24">
    <rdf:RDF>
      <cc:Work
         rdf:about="">
        <dc:format>image/svg+xml</dc:format>
        <dc:type
           rdf:resource="http://purl.org/dc/dcmitype/StillImage" />
        <dc:title />
      </cc:Work>
    </rdf:RDF>
  </metadata>
  <defs
     id="defs22" />
  <sodipodi:namedview
     pagecolor="#ffffff"
     bordercolor="#666666"
     borderopacity="1"
     objecttolerance="10"
     gridtolerance="10"
     guidetolerance="10"
     inkscape:pageopacity="0"
     inkscape:pageshadow="2"
     inkscape:window-width="1920"
     inkscape:window-height="1056"
     id="namedview20"
     showgrid="true"
     inkscape:zoom="20.85965"
     inkscape:cx="9.1978059"
     inkscape:cy="2.7470888"
     inkscape:window-x="0"
     inkscape:window-y="24"
     inkscape:window-maximized="1"
     inkscape:current-layer="svg2"
     inkscape:object-paths="true"
     inkscape:snap-intersection-paths="true"
     inkscape:object-nodes="true"
     inkscape:snap-bbox="true">
    <inkscape:grid
       type="xygrid"
       id="grid4186" />
  </sodipodi:namedview>
  <path
     style="color:#000000;font-style:normal;font-variant:normal;font-weight:normal;font-stretch:normal;font-size:medium;line-height:normal;font-family:sans-serif;text-indent:0;text-align:start;text-decoration:none;text-decoration-line:none;text-decoration-style:solid;text-decoration-color:#000000;letter-spacing:normal;word-spacing:normal;text-transform:none;direction:ltr;block-progression:tb;writing-mode:lr-tb;baseline-shift:baseline;text-anchor:start;white-space:normal;clip-rule:nonzero;display:inline;overflow:visible;visibility:visible;opacity:1;isolation:auto;mix-blend-mode:normal;color-interpolation:sRGB;color-interpolation-filters:linearRGB;solid-color:#000000;solid-opacity:1;fill:#dc322f;fill-opacity:1;fill-rule:evenodd;stroke:none;stroke-width:1;stroke-linecap:butt;stroke-linejoin:miter;stroke-miterlimit:4;stroke-dasharray:2, 1;stroke-dashoffset:0;stroke-opacity:1;color-rendering:auto;image-rendering:auto;shape-rendering:auto;text-rendering:auto;enable-background:accumulate"
     d="m 13,2 0,2 1,0 0,-2 z m 0,3 0,1.5 1,0 0,-1.5 z m 0,3.5 0,1.5 1,0 0,-1.5 z m 0,2.5 0,2 -2,0 0,1 3,0 0,-3 z m -11,2 0,1 2,0 0,-1 z m 3,0 0,1 2,0 0,-1 z m 3,0 0,1 2,0 0,-1 z"
     id="path4135"
     inkscape:connector-curvature="0"
     sodipodi:nodetypes="ccccccccccccccccccccccccccccccccccccc" />
  <path
     style="fill:#313131;fill-opacity:1;fill-rule:evenodd"
     d="M 6.8476562 4.0039062 C 6.120206 4.041349 5.4145179 4.3432946 4.8789062 4.8789062 C 4.0219276 5.7358849 3.7647221 7.028741 4.2285156 8.1484375 C 4.6923091 9.268134 5.7880492 10 7 10 L 7 9 C 6.1896395 9 5.4624553 8.5143004 5.1523438 7.765625 C 4.8422322 7.0169496 5.0129261 6.1589489 5.5859375 5.5859375 C 6.1589489 5.0129261 7.0169496 4.8422322 7.765625 5.1523438 C 8.5143004 5.4624553 9 6.1896395 9 7 L 8 7 L 9.5 9 L 11 7 L 10 7 C 10 5.7880492 9.268134 4.6923091 8.1484375 4.2285156 C 7.7285513 4.0545931 7.2841264 3.9814406 6.8476562 4.0039062 z "
     id="path4137" />
</svg>
